<svg width="512" height="512" viewBox="0 0 512 512" fill="none" xmlns="http://www.w3.org/2000/svg">
<g clip-path="url(#clip0_208_104)">
<rect width="512" height="512" fill="url(#paint0_radial_208_104)"/>
<g clip-path="url(#clip1_208_104)">
<path d="M154.735 168.809C156.021 170.094 157.77 170.817 159.592 170.814L187.075 170.767C190.871 170.764 193.954 167.68 193.958 163.884L194.104 76.4717C194.114 72.6824 191.045 69.6134 187.248 69.6163L159.766 69.6635C155.977 69.6741 152.894 72.7568 152.884 76.5457L152.738 163.958C152.734 165.78 153.45 167.523 154.735 168.809Z" fill="#ED5564"/>
<path d="M138.523 434.776C138.525 436.06 138.889 437.323 139.566 438.414L166.967 482.31C168.227 484.311 170.423 485.524 172.789 485.524C175.155 485.524 177.364 484.296 178.62 482.287L206.178 438.304C206.863 437.207 207.228 435.947 207.227 434.662L207.663 184.476C207.666 180.68 204.597 177.611 200.801 177.614L145.839 177.705C144.017 177.708 142.265 178.437 140.975 179.727C139.685 181.017 138.959 182.765 138.956 184.587L138.523 434.776Z" fill="#CCD1D9"/>
<path opacity="0.2" d="M172.79 485.523C175.156 485.523 177.364 484.295 178.621 482.286L206.179 438.304C206.864 437.207 207.228 435.946 207.227 434.662L207.663 184.476C207.666 180.68 204.597 177.611 200.801 177.614L145.839 177.705C144.017 177.708 142.265 178.437 140.975 179.727C139.685 181.017 138.959 182.765 138.956 184.587L138.523 434.776C138.525 436.06 138.889 437.323 139.566 438.414L166.967 482.31C168.227 484.311 170.424 485.524 172.79 485.523ZM172.805 478.653L145.398 434.764L145.827 184.579L200.793 184.485L200.36 434.667L172.805 478.653Z" fill="white"/>
<path d="M173.322 177.658C177.119 177.655 180.187 180.723 180.184 184.52L179.876 360.533C179.866 364.33 176.786 367.409 172.997 367.412C169.2 367.422 166.128 364.349 166.138 360.553L166.44 184.541C166.449 180.75 169.529 177.671 173.322 177.658Z" fill="#AAB2BC"/>
<path d="M194.045 112.946L152.754 154.237L152.737 163.959C152.734 165.78 153.45 167.523 154.736 168.808C155.226 169.298 155.777 169.7 156.37 170.015L194.009 132.377L194.045 112.946Z" fill="#DA4453"/>
<path d="M152.787 132.451L194.082 91.1559L194.104 76.4714C194.106 75.1196 193.714 73.8637 193.043 72.8014L152.824 113.02L152.787 132.451Z" fill="#DA4453"/>
<path d="M111.465 191.506L235.131 191.292C238.924 191.286 242.003 188.206 242.01 184.413L242.049 163.802C242.052 160.005 238.983 156.936 235.193 156.946L111.527 157.158C109.705 157.161 107.957 157.886 106.667 159.177C105.373 160.47 104.648 162.219 104.645 164.041L104.609 184.65C104.6 188.439 107.676 191.515 111.465 191.506Z" fill="#FFCE54"/>
<path d="M154.058 80.3299C159.237 85.509 166.134 88.3569 173.475 88.3484C188.633 88.3228 200.979 75.9763 201.005 60.8186C201.014 53.4782 198.165 46.5808 192.986 41.4017C187.807 36.223 180.91 33.3747 173.569 33.3832C166.226 33.3958 159.321 36.2646 154.121 41.4647C148.921 46.6648 146.052 53.5693 146.039 60.913C146.03 68.2534 148.879 75.1512 154.058 80.3299Z" fill="#FFCE54"/>
<path d="M168.673 56.0162C165.986 58.7032 165.979 63.0537 168.659 65.7332C171.339 68.4127 175.689 68.4067 178.376 65.7197C181.063 63.0327 181.069 58.6823 178.389 56.0027C175.71 53.3232 171.36 53.3293 168.673 56.0162Z" fill="#F6BB42"/>
</g>
<g clip-path="url(#clip2_208_104)">
<path d="M320.735 167.809C322.021 169.094 323.77 169.817 325.592 169.814L353.075 169.767C356.871 169.764 359.954 166.68 359.958 162.884L360.104 75.4717C360.114 71.6824 357.045 68.6134 353.248 68.6163L325.766 68.6635C321.977 68.6741 318.894 71.7568 318.884 75.5457L318.738 162.958C318.734 164.78 319.45 166.523 320.735 167.809Z" fill="#ED5564"/>
<path d="M304.523 433.776C304.525 435.06 304.889 436.323 305.566 437.414L332.967 481.31C334.227 483.311 336.423 484.524 338.789 484.524C341.155 484.524 343.364 483.296 344.62 481.287L372.178 437.304C372.863 436.207 373.228 434.947 373.227 433.662L373.663 183.476C373.666 179.68 370.597 176.611 366.801 176.614L311.839 176.705C310.017 176.708 308.265 177.437 306.975 178.727C305.685 180.017 304.959 181.765 304.956 183.587L304.523 433.776Z" fill="#CCD1D9"/>
<path opacity="0.2" d="M338.79 484.523C341.156 484.523 343.364 483.295 344.621 481.286L372.179 437.304C372.864 436.207 373.228 434.946 373.227 433.662L373.663 183.476C373.666 179.68 370.597 176.611 366.801 176.614L311.839 176.705C310.017 176.708 308.265 177.437 306.975 178.727C305.685 180.017 304.959 181.765 304.956 183.587L304.523 433.776C304.525 435.06 304.889 436.323 305.566 437.414L332.967 481.31C334.227 483.311 336.424 484.524 338.79 484.523ZM338.805 477.653L311.398 433.764L311.827 183.579L366.793 183.485L366.36 433.667L338.805 477.653Z" fill="white"/>
<path d="M339.322 176.658C343.119 176.655 346.187 179.723 346.184 183.52L345.876 359.533C345.866 363.33 342.786 366.409 338.997 366.412C335.2 366.422 332.128 363.349 332.138 359.553L332.44 183.541C332.449 179.75 335.529 176.671 339.322 176.658Z" fill="#AAB2BC"/>
<path d="M360.045 111.946L318.754 153.237L318.737 162.959C318.734 164.78 319.45 166.523 320.736 167.808C321.226 168.298 321.777 168.7 322.37 169.015L360.009 131.377L360.045 111.946Z" fill="#DA4453"/>
<path d="M318.787 131.451L360.082 90.1559L360.104 75.4714C360.106 74.1196 359.714 72.8637 359.043 71.8014L318.824 112.02L318.787 131.451Z" fill="#DA4453"/>
<path d="M277.465 190.506L401.131 190.292C404.924 190.286 408.003 187.206 408.01 183.413L408.049 162.802C408.052 159.005 404.983 155.936 401.193 155.946L277.527 156.158C275.705 156.161 273.957 156.886 272.667 158.177C271.373 159.47 270.648 161.219 270.645 163.041L270.609 183.65C270.6 187.439 273.676 190.515 277.465 190.506Z" fill="#FFCE54"/>
<path d="M320.058 79.3299C325.237 84.509 332.134 87.3569 339.475 87.3484C354.633 87.3228 366.979 74.9763 367.005 59.8186C367.014 52.4782 364.165 45.5808 358.986 40.4017C353.807 35.223 346.91 32.3747 339.569 32.3832C332.226 32.3958 325.321 35.2646 320.121 40.4647C314.921 45.6648 312.052 52.5693 312.039 59.913C312.03 67.2534 314.879 74.1512 320.058 79.3299Z" fill="#FFCE54"/>
<path d="M334.673 55.0162C331.986 57.7032 331.979 62.0537 334.659 64.7332C337.339 67.4127 341.689 67.4067 344.376 64.7197C347.063 62.0327 347.069 57.6823 344.389 55.0027C341.71 52.3232 337.36 52.3293 334.673 55.0162Z" fill="#F6BB42"/>
</g>
<g clip-path="url(#clip3_208_104)">
<path d="M497.37 104.556L492.576 76.6074L527.326 42.735C528.801 41.2977 529.332 39.1473 528.695 37.1897C528.059 35.2321 526.366 33.8048 524.33 33.5089L476.305 26.5315L454.829 -16.9854C453.918 -18.8311 452.038 -20 449.979 -20C447.92 -20 446.04 -18.8311 445.13 -16.9854L423.653 26.5315L375.63 33.5089C373.594 33.8054 371.9 35.2321 371.265 37.1897C370.629 39.1473 371.159 41.2977 372.633 42.735L407.384 76.6074L399.18 124.436C398.832 126.464 399.666 128.516 401.333 129.725C402.997 130.935 405.206 131.095 407.028 130.137L449.981 107.557L492.934 130.137C493.725 130.554 494.589 130.758 495.451 130.758C496.571 130.758 497.687 130.41 498.63 129.725C500.297 128.516 501.13 126.464 500.784 124.436L497.37 104.556Z" fill="#FFD960"/>
<path d="M298.863 36.3359C298.581 35.4681 297.83 34.8353 296.929 34.7052L275.654 31.6132L266.139 12.3359C265.735 11.5174 264.902 11 263.99 11C263.078 11 262.245 11.5174 261.842 12.3359L252.327 31.6132L231.051 34.7052C230.149 34.8365 229.399 35.4681 229.117 36.3359C228.836 37.2025 229.071 38.1546 229.723 38.7915L245.118 53.7974L241.484 74.9872C241.33 75.886 241.699 76.7936 242.437 77.3303C243.175 77.8665 244.154 77.9374 244.961 77.5126L263.99 67.5089L283.018 77.5126C283.368 77.6965 283.752 77.788 284.133 77.788C284.63 77.788 285.124 77.6333 285.542 77.3303C286.279 76.7942 286.649 75.8854 286.496 74.9872L282.861 53.7968L298.256 38.7915C298.909 38.1546 299.145 37.2031 298.863 36.3359Z" fill="#FFD960"/>
<path d="M439.338 262.98C439.127 262.33 438.565 261.857 437.889 261.759L421.95 259.443L414.822 245.001C414.521 244.388 413.896 244 413.213 244C412.53 244 411.906 244.388 411.604 245.001L404.477 259.443L388.538 261.759C387.862 261.857 387.299 262.331 387.088 262.98C386.877 263.63 387.053 264.344 387.542 264.821L399.076 276.062L396.353 291.935C396.238 292.609 396.514 293.29 397.066 293.692C397.619 294.093 398.352 294.146 398.957 293.828L413.212 286.333L427.468 293.828C427.73 293.966 428.017 294.033 428.302 294.033C428.673 294.033 429.047 293.918 429.357 293.691C429.91 293.289 430.187 292.608 430.073 291.935L427.349 276.062L438.883 264.82C439.374 264.343 439.549 263.629 439.338 262.98Z" fill="#FFD960"/>
<g opacity="0.1">
<path d="M416.825 119.636L425.029 71.8079L390.278 37.9355C388.804 36.4982 388.274 34.3478 388.91 32.3902C388.953 32.2555 389.014 32.1301 389.068 32L375.63 33.9529C373.594 34.2494 371.9 35.6762 371.265 37.6338C370.629 39.5914 371.159 41.7418 372.633 43.1791L407.384 77.0515L399.18 124.88C398.832 126.908 399.666 128.96 401.333 130.17C402.997 131.379 405.206 131.539 407.028 130.581L418.519 124.54C417.166 123.308 416.511 121.465 416.825 119.636Z" fill="#231F20"/>
</g>
<g opacity="0.1">
<path d="M259.129 69.8426L262.764 48.3538L247.369 33.1361C247.048 32.8188 246.829 32.4237 246.722 32L231.051 34.3091C230.149 34.4422 229.399 35.0827 229.117 35.9628C228.836 36.8416 229.071 37.8072 229.723 38.4531L245.118 53.6707L241.484 75.1596C241.33 76.0711 241.699 76.9915 242.437 77.5358C243.175 78.0795 244.154 78.1514 244.961 77.7206L259.096 70.1849C259.099 70.0708 259.11 69.9567 259.129 69.8426Z" fill="#231F20"/>
</g>
<g opacity="0.1">
<path d="M414.251 286.692L417 270.892L405.359 259.702C405.152 259.504 405.014 259.259 404.924 259L404.64 259.569L388.552 261.874C387.87 261.972 387.302 262.443 387.089 263.09C386.876 263.736 387.054 264.447 387.547 264.921L399.189 276.111L396.44 291.911C396.324 292.581 396.603 293.259 397.16 293.659C397.719 294.059 398.459 294.111 399.069 293.795L413.457 286.334L414.248 286.745C414.252 286.727 414.248 286.709 414.251 286.692Z" fill="#231F20"/>
</g>
<path d="M476.194 192.414C484.857 192.414 491.879 185.391 491.879 176.728C491.879 168.066 484.857 161.043 476.194 161.043C467.531 161.043 460.508 168.066 460.508 176.728C460.508 185.391 467.531 192.414 476.194 192.414Z" fill="#FFD960"/>
<path d="M263.686 255.374C272.349 255.374 279.372 248.351 279.372 239.688C279.372 231.026 272.349 224.003 263.686 224.003C255.023 224.003 248 231.026 248 239.688C248 248.351 255.023 255.374 263.686 255.374Z" fill="#FFD960"/>
<path opacity="0.1" d="M470.995 176.731C470.995 169.906 475.353 164.104 481.437 161.946C479.797 161.365 478.033 161.046 476.193 161.046C467.53 161.046 460.508 168.068 460.508 176.731C460.508 185.394 467.53 192.417 476.193 192.417C478.033 192.417 479.797 192.098 481.437 191.516C475.354 189.357 470.995 183.555 470.995 176.731Z" fill="#231F20"/>
<path opacity="0.1" d="M258.488 239.686C258.488 232.862 262.845 227.059 268.929 224.901C267.289 224.319 265.525 224 263.686 224C255.022 224 248 231.022 248 239.686C248 248.348 255.022 255.371 263.686 255.371C265.525 255.371 267.289 255.052 268.929 254.47C262.846 252.312 258.488 246.509 258.488 239.686Z" fill="#231F20"/>
<path d="M412.953 228.907C419.003 228.907 423.907 224.003 423.907 217.953C423.907 211.904 419.003 207 412.953 207C406.904 207 402 211.904 402 217.953C402 224.003 406.904 228.907 412.953 228.907Z" fill="#FFD960"/>
<path d="M460.509 265.873C466.559 265.873 471.463 260.969 471.463 254.919C471.463 248.87 466.559 243.965 460.509 243.965C454.459 243.965 449.555 248.87 449.555 254.919C449.555 260.969 454.459 265.873 460.509 265.873Z" fill="#FFD960"/>
</g>
</g>
<defs>
<radialGradient id="paint0_radial_208_104" cx="0" cy="0" r="1" gradientUnits="userSpaceOnUse" gradientTransform="translate(256 256) rotate(90) scale(256)">
<stop stop-color="#130052"/>
<stop offset="1" stop-color="#0D0039"/>
</radialGradient>
<clipPath id="clip0_208_104">
<rect width="512" height="512" fill="white"/>
</clipPath>
<clipPath id="clip1_208_104">
<rect width="330.34" height="329.208" fill="white" transform="translate(406.371 254.785) rotate(135)"/>
</clipPath>
<clipPath id="clip2_208_104">
<rect width="330.34" height="329.208" fill="white" transform="translate(572.371 253.785) rotate(135)"/>
</clipPath>
<clipPath id="clip3_208_104">
<rect width="300" height="300" fill="white" transform="translate(212)"/>
</clipPath>
</defs>
</svg>
